<?xml version="1.0" encoding="UTF-8" standalone="no"?>
<svg
   xmlns:dc="http://purl.org/dc/elements/1.1/"
   xmlns:cc="http://creativecommons.org/ns#"
   xmlns:rdf="http://www.w3.org/1999/02/22-rdf-syntax-ns#"
   xmlns:svg="http://www.w3.org/2000/svg"
   xmlns="http://www.w3.org/2000/svg"
   xmlns:sodipodi="http://sodipodi.sourceforge.net/DTD/sodipodi-0.dtd"
   xmlns:inkscape="http://www.inkscape.org/namespaces/inkscape"
   width="83.967377mm"
   height="25.444788mm"
   viewBox="0 0 83.96738 25.444788"
   version="1.1"
   id="svg8"
   inkscape:version="1.0.2-2 (e86c870879, 2021-01-15)"
   sodipodi:docname="history.svg"
   inkscape:export-filename="C:\Users\galpa\Pictures\logo\Name\Final\NameOtherBigSignUp2.png"
   inkscape:export-xdpi="96"
   inkscape:export-ydpi="96">
  <defs
     id="defs2">
    <filter
       inkscape:collect="always"
       style="color-interpolation-filters:sRGB"
       id="filter1073"
       x="-0.024852423"
       width="1.0497048"
       y="-0.026077211"
       height="1.0521544">
      <feGaussianBlur
         inkscape:collect="always"
         stdDeviation="1.9208699"
         id="feGaussianBlur1075" />
    </filter>
    <filter
       inkscape:collect="always"
       style="color-interpolation-filters:sRGB"
       id="filter1387"
       x="-0.0036508867"
       width="1.0073018"
       y="-0.0038308112"
       height="1.0076616">
      <feGaussianBlur
         inkscape:collect="always"
         stdDeviation="0.28218088"
         id="feGaussianBlur1389" />
    </filter>
    <filter
       inkscape:collect="always"
       style="color-interpolation-filters:sRGB"
       id="filter3472"
       x="-0.012465085"
       width="1.0249302"
       y="-0.1459659"
       height="1.2919317">
      <feGaussianBlur
         inkscape:collect="always"
         stdDeviation="0.63612405"
         id="feGaussianBlur3474" />
    </filter>
  </defs>
  <sodipodi:namedview
     id="base"
     pagecolor="#ffffff"
     bordercolor="#666666"
     borderopacity="1.0"
     inkscape:pageopacity="0.0"
     inkscape:pageshadow="2"
     inkscape:zoom="0.9899495"
     inkscape:cx="377.13435"
     inkscape:cy="156.99262"
     inkscape:document-units="mm"
     inkscape:current-layer="g3624"
     inkscape:document-rotation="0"
     showgrid="false"
     inkscape:window-width="1920"
     inkscape:window-height="986"
     inkscape:window-x="-11"
     inkscape:window-y="-11"
     inkscape:window-maximized="1" />
  <metadata
     id="metadata5">
    <rdf:RDF>
      <cc:Work
         rdf:about="">
        <dc:format>image/svg+xml</dc:format>
        <dc:type
           rdf:resource="http://purl.org/dc/dcmitype/StillImage" />
        <dc:title></dc:title>
      </cc:Work>
    </rdf:RDF>
  </metadata>
  <g
     inkscape:label="Layer 1"
     inkscape:groupmode="layer"
     id="layer1"
     transform="translate(41.857198,-42.882425)">
    <g
       id="g3624"
       transform="matrix(1.2045046,0,0,1.1190959,-27.699583,-6.8088784)">
      <text
         xml:space="preserve"
         style="font-style:normal;font-variant:normal;font-weight:normal;font-stretch:normal;font-size:10.5833px;line-height:10;font-family:Jokerman;-inkscape-font-specification:'Jokerman, Normal';font-variant-ligatures:normal;font-variant-caps:normal;font-variant-numeric:normal;font-variant-east-asian:normal;fill:#00ffff;stroke-width:0.264583;filter:url(#filter3472)"
         x="79.407333"
         y="98.625153"
         id="text3422"
         transform="matrix(1.9243895,0,0,1.8076728,-165.63218,-116.44864)"><tspan
           sodipodi:role="line"
           id="tspan3420"
           x="79.407333"
           y="98.625153"
           style="font-style:normal;font-variant:normal;font-weight:normal;font-stretch:normal;font-size:10.5833px;font-family:Jokerman;-inkscape-font-specification:'Jokerman, Normal';font-variant-ligatures:normal;font-variant-caps:normal;font-variant-numeric:normal;font-variant-east-asian:normal;fill:#00ffff;stroke-width:0.264583">History</tspan></text>
      <g
         id="g943"
         transform="matrix(1.9243895,0,0,1.8076728,-228.38802,-107.44677)">
        <text
           xml:space="preserve"
           style="font-style:normal;font-variant:normal;font-weight:normal;font-stretch:normal;font-size:10.5833px;line-height:10;font-family:Jokerman;-inkscape-font-specification:'Jokerman, Normal';font-variant-ligatures:normal;font-variant-caps:normal;font-variant-numeric:normal;font-variant-east-asian:normal;fill:#000080;stroke-width:0.264583"
           x="111.84428"
           y="92.917107"
           id="text3426"><tspan
             sodipodi:role="line"
             id="tspan3424"
             x="111.84428"
             y="92.917107"
             style="font-style:normal;font-variant:normal;font-weight:normal;font-stretch:normal;font-size:10.5833px;font-family:Jokerman;-inkscape-font-specification:'Jokerman, Normal';font-variant-ligatures:normal;font-variant-caps:normal;font-variant-numeric:normal;font-variant-east-asian:normal;fill:#000080;stroke-width:0.264583">History</tspan></text>
      </g>
      <g
         id="g949"
         transform="matrix(1.9243895,0,0,1.8076728,-210.1929,-180.91341)">
        <text
           xml:space="preserve"
           style="font-style:normal;font-variant:normal;font-weight:normal;font-stretch:normal;font-size:10.5833px;line-height:10;font-family:Jokerman;-inkscape-font-specification:'Jokerman, Normal';font-variant-ligatures:normal;font-variant-caps:normal;font-variant-numeric:normal;font-variant-east-asian:normal;fill:#000080;stroke-width:0.264583"
           x="102.50458"
           y="133.60948"
           id="text947"><tspan
             sodipodi:role="line"
             id="tspan945"
             x="102.50458"
             y="133.60948"
             style="font-style:normal;font-variant:normal;font-weight:normal;font-stretch:normal;font-size:10.5833px;font-family:Jokerman;-inkscape-font-specification:'Jokerman, Normal';font-variant-ligatures:normal;font-variant-caps:normal;font-variant-numeric:normal;font-variant-east-asian:normal;fill:#000080;stroke-width:0.264583">History</tspan></text>
      </g>
      <g
         id="g3580"
         transform="matrix(1.5579285,0,0,1.3758077,-232.74256,61.176896)">
        <g
           id="g1407"
           transform="matrix(-0.1333827,0.00346171,0.00522883,0.09781745,206.35727,34.079782)"
           inkscape:export-filename="C:\Users\galpa\Pictures\logo\Name\Final\NameOtherBigSignUp2.png"
           inkscape:export-xdpi="96"
           inkscape:export-ydpi="96"
           style="fill:#00ffff;fill-opacity:1">
          <g
             id="g2667"
             transform="matrix(-0.76424653,0.0624358,0.06916151,0.99755244,345.58642,7.1177341)"
             inkscape:export-filename="C:\Users\galpa\Pictures\logo\Name\other2.png"
             inkscape:export-xdpi="96"
             inkscape:export-ydpi="96"
             style="fill:#00ffff;fill-opacity:1">
            <g
               id="g879"
               style="fill:#00ffff;fill-opacity:1;filter:url(#filter1387)"
               transform="matrix(1.0212287,0,0,1.0649623,-0.26264139,-0.350695)">
              <path
                 style="fill:#00ffff;fill-opacity:1;stroke-width:0.307999"
                 d="m 44.20422,5.3984394 -8.296481,23.8947166 -1.13393,15.874999 2.078868,16.441963 4.724704,13.040179 9.071428,14.174108 15.874999,18.331845 16.630952,16.25297 15.875,16.25298 7.55952,18.14286 1.13393,17.57589 -1.70089,6.80357 L 96.950891,164.41964 81.831843,145.14286 64.44494,127.37797 44.790177,109.99107 25.440673,89.872183 17.008928,74.272322 13.381795,62.074243 l 2.24493,-13.828554 3.272084,-7.991224 0.944941,19.465773 4.91369,7.748511 -3.023809,-19.84375 3.760119,-20.599701 8.122558,-11.860138 z"
                 id="path847"
                 sodipodi:nodetypes="ccccccccccccccccccccccccccc" />
              <path
                 style="fill:#00ffff;fill-opacity:1;stroke-width:0.307999"
                 d="m 13.985119,78.619047 -1.613115,13.095532 2.485337,13.238661 14.057836,14.48723 11.528274,8.88245 17.764882,12.47321 32.616657,27.03873 7.070842,7.54609 L 86.745534,155.15922 71.059523,138.90625 47.624999,119.81845 31.56101,104.51042 19.84375,90.525297 Z"
                 id="path849"
                 sodipodi:nodetypes="cccccccccccccc" />
              <path
                 style="fill:#00ffff;fill-opacity:1;stroke-width:0.307999"
                 d="m 27.403274,127.18899 2.250492,10.57546 6.24217,7.36104 15.319838,6.44296 7.559524,3.2128 11.339284,4.34672 9.237489,7.28276 5.438732,5.43874 -5.356516,-10.7494 -14.80036,-13.50037 -10.016369,-6.99256 -7.74851,-5.10268 -8.361333,-4.79348 -3.166941,-1.63211 -0.377976,-0.56697 4.157736,5.48066 6.744285,5.91399 4.816416,3.79318 -7.780937,-4.22652 -9.07143,-6.42559 z"
                 id="path851"
                 sodipodi:nodetypes="ccccccccccccccccccccc" />
              <path
                 style="fill:#00ffff;fill-opacity:1;stroke-width:0.307999"
                 d="m 111.88095,179.16071 12.391,-13.46401 5.75186,-11.48242 -1.32292,-16.63095 -0.37797,-18.14286 3.96874,-16.63095 10.20536,-10.016365 12.28423,-5.858632 h -12.6622 l -7.98336,1.042216 -9.24698,-1.922307 -7.70659,1.290493 -5.86813,4.3143 -3.10209,3.936324 -13.15089,0.599391 7.55952,3.77976 -4.988034,1.61311 -8.430115,-1.991085 -1.511906,-0.755952 6.425596,6.614587 4.724702,2.07886 4.724697,0.56697 -3.26815,11.10444 -6.559227,4.77056 6.236607,7.37053 4.53572,7.74852 5.48065,13.22916 z"
                 id="path853"
                 sodipodi:nodetypes="cccccccccccccccccccccccccccc" />
              <path
                 style="fill:#00ffff;fill-opacity:1;stroke-width:0.307999"
                 d="m 182.18452,127.37797 -6.65094,13.92027 -4.87733,3.46664 -9.07143,4.7247 -9.26042,3.96875 -9.4494,4.34673 -7.30176,6.32832 -5.54943,5.38894 3.96875,-10.39435 7.37053,-9.63839 6.99256,-5.85863 6.61459,-4.7247 7.18154,-3.59078 6.64701,-4.04703 4.88127,-2.56755 -9.44941,9.07143 -5.85863,6.80357 9.07143,-4.7247 5.85863,-3.59078 4.53572,-4.34672 4.7247,-5.66964 0.37797,1.13392 z"
                 id="path855"
                 sodipodi:nodetypes="ccccccccccccccccccccccc" />
              <path
                 style="fill:#00ffff;fill-opacity:1;stroke-width:0.307999"
                 d="m 133.42559,151.19047 22.3006,-16.25297 16.56217,-10.15 13.11846,-8.5274 9.25092,-9.67082 3.21279,-11.52827 -1.13392,-15.119046 -9.82739,16.819941 -8.50446,8.882435 -11.1503,8.50447 -9.4494,7.18155 -11.52828,6.2366 -8.13992,6.11247 -3.76633,5.22682 z"
                 id="path857"
                 sodipodi:nodetypes="ccccccccccccccc" />
              <path
                 style="fill:#00ffff;fill-opacity:1;stroke-width:0.307999"
                 d="m 132.10268,133.99256 17.79337,-14.53865 16.41347,-9.84082 12.28423,-10.961306 8.12649,-8.504463 6.04762,-8.315478 3.40178,-8.882438 0.56697,-11.150298 -3.40179,-9.638393 -1.88988,-8.693454 -2.64583,16.819941 -2.26786,6.614583 1.70089,-23.056545 -6.20418,-20.828984 -15.71844,-15.8347075 5.48066,14.5520835 3.40178,14.552084 0.56697,18.709819 -4.53572,15.497024 -6.2366,11.339285 -5.66965,7.559524 -5.10268,5.858632 -8.3384,7.712151 -10.74939,9.48577 -1.93181,4.39258 z"
                 id="path859"
                 sodipodi:nodetypes="cccccccccccccccccccccccccc" />
            </g>
            <g
               id="g1015"
               style="fill:#00ffff;fill-opacity:1;filter:url(#filter1073)"
               transform="matrix(1.008473,-2.9985483e-4,-3.3215578e-4,1.0000118,2.267359,7.4153027)">
              <path
                 style="fill:#00ffff;fill-opacity:1;stroke-width:0.307999"
                 d="m 47.22803,1.6186775 -11.320291,27.6744785 -1.13393,15.874999 2.078868,16.441963 4.724704,13.040179 9.071428,14.174108 15.874999,18.331845 16.630952,16.25297 15.875,16.25298 7.55952,18.14286 1.13393,17.57589 -1.70089,6.80357 L 96.950891,164.41964 81.831843,145.14286 64.44494,127.37797 44.790177,109.99107 25.440673,89.872183 17.008928,74.272322 13.381795,62.074243 l 0.922013,-13.26159 2.272069,-13.702293 3.267873,24.609878 4.91369,7.748511 -3.023809,-19.84375 2.267857,-22.111606 7.559523,-11.528274 z"
                 id="path1001"
                 sodipodi:nodetypes="ccccccccccccccccccccccccccc" />
              <path
                 style="fill:#00ffff;fill-opacity:1;stroke-width:0.307999"
                 d="m 13.985119,78.619047 -1.613115,13.095532 2.485337,13.238661 14.057836,14.48723 11.528274,8.88245 17.764882,12.47321 32.616657,27.03873 7.070842,7.54609 L 86.745534,155.15922 71.059523,138.90625 47.624999,119.81845 31.56101,104.51042 19.84375,90.525297 Z"
                 id="path1003"
                 sodipodi:nodetypes="cccccccccccccc" />
              <path
                 style="fill:#00ffff;fill-opacity:1;stroke-width:0.307999"
                 d="m 27.403274,127.18899 2.250492,10.57546 6.24217,7.36104 15.319838,6.44296 7.559524,3.2128 11.339284,4.34672 9.237489,7.28276 5.438732,5.43874 -5.356516,-10.7494 -14.80036,-13.50037 -10.016369,-6.99256 -7.74851,-5.10268 -8.361333,-4.79348 -3.166941,-1.63211 -0.377976,-0.56697 4.157736,5.48066 6.744285,5.91399 4.816416,3.79318 -7.780937,-4.22652 -9.07143,-6.42559 z"
                 id="path1005"
                 sodipodi:nodetypes="ccccccccccccccccccccc" />
              <path
                 style="fill:#00ffff;fill-opacity:1;stroke-width:0.307999"
                 d="m 111.88095,179.16071 12.391,-13.46401 5.75186,-11.48242 -1.32292,-16.63095 -0.37797,-18.14286 3.96874,-16.63095 10.20536,-10.016365 12.84591,-7.970293 -13.22388,2.111661 -7.85996,-1.00174 -9.44328,-2.047185 -7.87019,1.374327 -5.63163,6.3993 -7.25983,3.558348 -14.095829,-2.046443 12.662199,6.80357 -4.988034,1.61311 -8.430115,-1.991085 -1.511906,-0.755952 6.425596,6.614587 4.724702,2.07886 4.724697,0.56697 -3.26815,11.10444 -6.559227,4.77056 6.236607,7.37053 4.53572,7.74852 5.48065,13.22916 z"
                 id="path1007"
                 sodipodi:nodetypes="cccccccccccccccccccccccccccc" />
              <path
                 style="fill:#00ffff;fill-opacity:1;stroke-width:0.307999"
                 d="m 182.18452,127.37797 -6.65094,13.92027 -4.87733,3.46664 -9.07143,4.7247 -9.26042,3.96875 -9.4494,4.34673 -7.30176,6.32832 -5.54943,5.38894 3.96875,-10.39435 7.37053,-9.63839 6.99256,-5.85863 6.61459,-4.7247 7.18154,-3.59078 6.64701,-4.04703 4.88127,-2.56755 -9.44941,9.07143 -5.85863,6.80357 9.07143,-4.7247 5.85863,-3.59078 4.53572,-4.34672 4.7247,-5.66964 0.37797,1.13392 z"
                 id="path1009"
                 sodipodi:nodetypes="ccccccccccccccccccccccc" />
              <path
                 style="fill:#00ffff;fill-opacity:1;stroke-width:0.307999"
                 d="m 133.42559,151.19047 22.3006,-16.25297 16.56217,-10.15 13.11846,-8.5274 9.25092,-9.67082 3.21279,-11.52827 -1.13392,-15.119046 -9.82739,16.819941 -8.50446,8.882435 -11.1503,8.50447 -9.4494,7.18155 -11.52828,6.2366 -8.13992,6.11247 -3.76633,5.22682 z"
                 id="path1011"
                 sodipodi:nodetypes="ccccccccccccccc" />
              <path
                 style="fill:#00ffff;fill-opacity:1;stroke-width:0.307999"
                 d="m 132.10268,133.99256 17.79337,-14.53865 16.41347,-9.84082 12.28423,-10.961306 8.12649,-8.504463 6.04762,-8.315478 3.40178,-8.882438 0.56697,-11.150298 -2.02167,-14.009041 -3.27,-4.322806 -2.64583,16.819941 -2.26786,6.614583 1.70089,-23.056545 -3.93632,-21.773924 -17.17989,-22.18236526 4.67425,21.84468126 3.40178,14.552084 0.56697,18.709819 -4.53572,15.497024 -6.2366,11.339285 -5.66965,7.559524 -5.10268,5.858632 -8.3384,7.712151 -10.74939,9.48577 -1.93181,4.39258 z"
                 id="path1013"
                 sodipodi:nodetypes="cccccccccccccccccccccccccc" />
            </g>
          </g>
        </g>
        <g
           id="g3542"
           transform="matrix(-0.11484781,0.00328504,0.00450223,0.09282538,201.87688,34.818011)"
           inkscape:export-filename="C:\Users\galpa\Pictures\logo\Name\Final\NameOtherBigSignUp2.png"
           inkscape:export-xdpi="96"
           inkscape:export-ydpi="96"
           style="fill:#000080;fill-opacity:1">
          <g
             id="g3540"
             transform="matrix(-0.76424653,0.0624358,0.06916151,0.99755244,345.58642,7.1177341)"
             inkscape:export-filename="C:\Users\galpa\Pictures\logo\Name\other2.png"
             inkscape:export-xdpi="96"
             inkscape:export-ydpi="96"
             style="fill:#000080;fill-opacity:1">
            <g
               id="g3522"
               style="fill:#000080;fill-opacity:1;filter:url(#filter1387)"
               transform="matrix(1.0212287,0,0,1.0649623,-0.26264139,-0.350695)">
              <path
                 style="fill:#000080;fill-opacity:1;stroke-width:0.307999"
                 d="m 44.20422,5.3984394 -8.296481,23.8947166 -1.13393,15.874999 2.078868,16.441963 4.724704,13.040179 9.071428,14.174108 15.874999,18.331845 16.630952,16.25297 15.875,16.25298 7.55952,18.14286 1.13393,17.57589 -1.70089,6.80357 L 96.950891,164.41964 81.831843,145.14286 64.44494,127.37797 44.790177,109.99107 25.440673,89.872183 17.008928,74.272322 13.381795,62.074243 l 2.24493,-13.828554 3.272084,-7.991224 0.944941,19.465773 4.91369,7.748511 -3.023809,-19.84375 3.760119,-20.599701 8.122558,-11.860138 z"
                 id="path3508"
                 sodipodi:nodetypes="ccccccccccccccccccccccccccc" />
              <path
                 style="fill:#000080;fill-opacity:1;stroke-width:0.307999"
                 d="m 13.985119,78.619047 -1.613115,13.095532 2.485337,13.238661 14.057836,14.48723 11.528274,8.88245 17.764882,12.47321 32.616657,27.03873 7.070842,7.54609 L 86.745534,155.15922 71.059523,138.90625 47.624999,119.81845 31.56101,104.51042 19.84375,90.525297 Z"
                 id="path3510"
                 sodipodi:nodetypes="cccccccccccccc" />
              <path
                 style="fill:#000080;fill-opacity:1;stroke-width:0.307999"
                 d="m 27.403274,127.18899 2.250492,10.57546 6.24217,7.36104 15.319838,6.44296 7.559524,3.2128 11.339284,4.34672 9.237489,7.28276 5.438732,5.43874 -5.356516,-10.7494 -14.80036,-13.50037 -10.016369,-6.99256 -7.74851,-5.10268 -8.361333,-4.79348 -3.166941,-1.63211 -0.377976,-0.56697 4.157736,5.48066 6.744285,5.91399 4.816416,3.79318 -7.780937,-4.22652 -9.07143,-6.42559 z"
                 id="path3512"
                 sodipodi:nodetypes="ccccccccccccccccccccc" />
              <path
                 style="fill:#000080;fill-opacity:1;stroke-width:0.307999"
                 d="m 111.88095,179.16071 12.391,-13.46401 5.75186,-11.48242 -1.32292,-16.63095 -0.37797,-18.14286 3.96874,-16.63095 10.20536,-10.016365 12.28423,-5.858632 h -12.6622 l -7.98336,1.042216 -9.24698,-1.922307 -7.70659,1.290493 -5.86813,4.3143 -3.10209,3.936324 -13.15089,0.599391 7.55952,3.77976 -4.988034,1.61311 -8.430115,-1.991085 -1.511906,-0.755952 6.425596,6.614587 4.724702,2.07886 4.724697,0.56697 -3.26815,11.10444 -6.559227,4.77056 6.236607,7.37053 4.53572,7.74852 5.48065,13.22916 z"
                 id="path3514"
                 sodipodi:nodetypes="cccccccccccccccccccccccccccc" />
              <path
                 style="fill:#000080;fill-opacity:1;stroke-width:0.307999"
                 d="m 182.18452,127.37797 -6.65094,13.92027 -4.87733,3.46664 -9.07143,4.7247 -9.26042,3.96875 -9.4494,4.34673 -7.30176,6.32832 -5.54943,5.38894 3.96875,-10.39435 7.37053,-9.63839 6.99256,-5.85863 6.61459,-4.7247 7.18154,-3.59078 6.64701,-4.04703 4.88127,-2.56755 -9.44941,9.07143 -5.85863,6.80357 9.07143,-4.7247 5.85863,-3.59078 4.53572,-4.34672 4.7247,-5.66964 0.37797,1.13392 z"
                 id="path3516"
                 sodipodi:nodetypes="ccccccccccccccccccccccc" />
              <path
                 style="fill:#000080;fill-opacity:1;stroke-width:0.307999"
                 d="m 133.42559,151.19047 22.3006,-16.25297 16.56217,-10.15 13.11846,-8.5274 9.25092,-9.67082 3.21279,-11.52827 -1.13392,-15.119046 -9.82739,16.819941 -8.50446,8.882435 -11.1503,8.50447 -9.4494,7.18155 -11.52828,6.2366 -8.13992,6.11247 -3.76633,5.22682 z"
                 id="path3518"
                 sodipodi:nodetypes="ccccccccccccccc" />
              <path
                 style="fill:#000080;fill-opacity:1;stroke-width:0.307999"
                 d="m 132.10268,133.99256 17.79337,-14.53865 16.41347,-9.84082 12.28423,-10.961306 8.12649,-8.504463 6.04762,-8.315478 3.40178,-8.882438 0.56697,-11.150298 -3.40179,-9.638393 -1.88988,-8.693454 -2.64583,16.819941 -2.26786,6.614583 1.70089,-23.056545 -6.20418,-20.828984 -15.71844,-15.8347075 5.48066,14.5520835 3.40178,14.552084 0.56697,18.709819 -4.53572,15.497024 -6.2366,11.339285 -5.66965,7.559524 -5.10268,5.858632 -8.3384,7.712151 -10.74939,9.48577 -1.93181,4.39258 z"
                 id="path3520"
                 sodipodi:nodetypes="cccccccccccccccccccccccccc" />
            </g>
            <g
               id="g3538"
               style="fill:#000080;fill-opacity:1;filter:url(#filter1073)"
               transform="matrix(1.008473,-2.9985483e-4,-3.3215578e-4,1.0000118,2.267359,7.4153027)">
              <path
                 style="fill:#000080;fill-opacity:1;stroke-width:0.307999"
                 d="m 47.22803,1.6186775 -11.320291,27.6744785 -1.13393,15.874999 2.078868,16.441963 4.724704,13.040179 9.071428,14.174108 15.874999,18.331845 16.630952,16.25297 15.875,16.25298 7.55952,18.14286 1.13393,17.57589 -1.70089,6.80357 L 96.950891,164.41964 81.831843,145.14286 64.44494,127.37797 44.790177,109.99107 25.440673,89.872183 17.008928,74.272322 13.381795,62.074243 l 0.922013,-13.26159 2.272069,-13.702293 3.267873,24.609878 4.91369,7.748511 -3.023809,-19.84375 2.267857,-22.111606 7.559523,-11.528274 z"
                 id="path3524"
                 sodipodi:nodetypes="ccccccccccccccccccccccccccc" />
              <path
                 style="fill:#000080;fill-opacity:1;stroke-width:0.307999"
                 d="m 13.985119,78.619047 -1.613115,13.095532 2.485337,13.238661 14.057836,14.48723 11.528274,8.88245 17.764882,12.47321 32.616657,27.03873 7.070842,7.54609 L 86.745534,155.15922 71.059523,138.90625 47.624999,119.81845 31.56101,104.51042 19.84375,90.525297 Z"
                 id="path3526"
                 sodipodi:nodetypes="cccccccccccccc" />
              <path
                 style="fill:#000080;fill-opacity:1;stroke-width:0.307999"
                 d="m 27.403274,127.18899 2.250492,10.57546 6.24217,7.36104 15.319838,6.44296 7.559524,3.2128 11.339284,4.34672 9.237489,7.28276 5.438732,5.43874 -5.356516,-10.7494 -14.80036,-13.50037 -10.016369,-6.99256 -7.74851,-5.10268 -8.361333,-4.79348 -3.166941,-1.63211 -0.377976,-0.56697 4.157736,5.48066 6.744285,5.91399 4.816416,3.79318 -7.780937,-4.22652 -9.07143,-6.42559 z"
                 id="path3528"
                 sodipodi:nodetypes="ccccccccccccccccccccc" />
              <path
                 style="fill:#000080;fill-opacity:1;stroke-width:0.307999"
                 d="m 111.88095,179.16071 12.391,-13.46401 5.75186,-11.48242 -1.32292,-16.63095 -0.37797,-18.14286 3.96874,-16.63095 10.20536,-10.016365 12.84591,-7.970293 -13.22388,2.111661 -7.85996,-1.00174 -9.44328,-2.047185 -7.87019,1.374327 -5.63163,6.3993 -7.25983,3.558348 -14.095829,-2.046443 12.662199,6.80357 -4.988034,1.61311 -8.430115,-1.991085 -1.511906,-0.755952 6.425596,6.614587 4.724702,2.07886 4.724697,0.56697 -3.26815,11.10444 -6.559227,4.77056 6.236607,7.37053 4.53572,7.74852 5.48065,13.22916 z"
                 id="path3530"
                 sodipodi:nodetypes="cccccccccccccccccccccccccccc" />
              <path
                 style="fill:#000080;fill-opacity:1;stroke-width:0.307999"
                 d="m 182.18452,127.37797 -6.65094,13.92027 -4.87733,3.46664 -9.07143,4.7247 -9.26042,3.96875 -9.4494,4.34673 -7.30176,6.32832 -5.54943,5.38894 3.96875,-10.39435 7.37053,-9.63839 6.99256,-5.85863 6.61459,-4.7247 7.18154,-3.59078 6.64701,-4.04703 4.88127,-2.56755 -9.44941,9.07143 -5.85863,6.80357 9.07143,-4.7247 5.85863,-3.59078 4.53572,-4.34672 4.7247,-5.66964 0.37797,1.13392 z"
                 id="path3532"
                 sodipodi:nodetypes="ccccccccccccccccccccccc" />
              <path
                 style="fill:#000080;fill-opacity:1;stroke-width:0.307999"
                 d="m 133.42559,151.19047 22.3006,-16.25297 16.56217,-10.15 13.11846,-8.5274 9.25092,-9.67082 3.21279,-11.52827 -1.13392,-15.119046 -9.82739,16.819941 -8.50446,8.882435 -11.1503,8.50447 -9.4494,7.18155 -11.52828,6.2366 -8.13992,6.11247 -3.76633,5.22682 z"
                 id="path3534"
                 sodipodi:nodetypes="ccccccccccccccc" />
              <path
                 style="fill:#000080;fill-opacity:1;stroke-width:0.307999"
                 d="m 132.10268,133.99256 17.79337,-14.53865 16.41347,-9.84082 12.28423,-10.961306 8.12649,-8.504463 6.04762,-8.315478 3.40178,-8.882438 0.56697,-11.150298 -2.02167,-14.009041 -3.27,-4.322806 -2.64583,16.819941 -2.26786,6.614583 1.70089,-23.056545 -3.93632,-21.773924 -17.17989,-22.18236526 4.67425,21.84468126 3.40178,14.552084 0.56697,18.709819 -4.53572,15.497024 -6.2366,11.339285 -5.66965,7.559524 -5.10268,5.858632 -8.3384,7.712151 -10.74939,9.48577 -1.93181,4.39258 z"
                 id="path3536"
                 sodipodi:nodetypes="cccccccccccccccccccccccccc" />
            </g>
          </g>
        </g>
      </g>
    </g>
  </g>
</svg>
